<svg viewBox="0 0 26 18" xmlns="http://www.w3.org/2000/svg" xmlns:xlink="http://www.w3.org/1999/xlink" width="26.000000" height="18.000000" fill="none" customFrame="#000000">
	<defs>
		<clipPath id="clipPath_0">
			<rect width="26.000000" height="2.000000" x="0.000000" y="0.000000" fill="rgb(255,255,255)" />
		</clipPath>
		<clipPath id="clipPath_1">
			<rect width="26.000000" height="2.000000" x="0.000000" y="8.000000" fill="rgb(255,255,255)" />
		</clipPath>
		<clipPath id="clipPath_2">
			<rect width="26.000000" height="2.000000" x="0.000000" y="16.000000" fill="rgb(255,255,255)" />
		</clipPath>
	</defs>
	<rect id="catalog icon" width="26.000000" height="18.000000" x="0.000000" y="0.000000" />
	<g id="catalog" customFrame="url(#clipPath_0)">
		<rect id="catalog" width="26.000000" height="2.000000" x="0.000000" y="0.000000" />
		<rect id="Rectangle 18" width="2.000000" height="2.000000" x="0.000000" y="0.000000" rx="1.000000" fill="rgb(69.2617,69.2617,69.2617)" />
		<rect id="Rectangle 17" width="20.000000" height="2.000000" x="6.000000" y="0.000000" rx="1.000000" fill="rgb(69.2617,69.2617,69.2617)" />
	</g>
	<g id="catalog" customFrame="url(#clipPath_1)">
		<rect id="catalog" width="26.000000" height="2.000000" x="0.000000" y="8.000000" />
		<rect id="Rectangle 18" width="2.000000" height="2.000000" x="0.000000" y="8.000000" rx="1.000000" fill="rgb(69.2617,69.2617,69.2617)" />
		<rect id="Rectangle 17" width="20.000000" height="2.000000" x="6.000000" y="8.000000" rx="1.000000" fill="rgb(69.2617,69.2617,69.2617)" />
	</g>
	<g id="catalog" customFrame="url(#clipPath_2)">
		<rect id="catalog" width="26.000000" height="2.000000" x="0.000000" y="16.000000" />
		<rect id="Rectangle 18" width="2.000000" height="2.000000" x="0.000000" y="16.000000" rx="1.000000" fill="rgb(69.2617,69.2617,69.2617)" />
		<rect id="Rectangle 17" width="20.000000" height="2.000000" x="6.000000" y="16.000000" rx="1.000000" fill="rgb(69.2617,69.2617,69.2617)" />
	</g>
</svg>
