<svg viewBox="0 0 22 24" xmlns="http://www.w3.org/2000/svg" xmlns:xlink="http://www.w3.org/1999/xlink" width="22.000000" height="24.000000" fill="none" customFrame="#000000">
	<g id="🦆 icon profil">
		<path id="Vector" d="M21 23L21 20.6667C21 19.429 20.4732 18.242 19.5355 17.3668C18.5979 16.4917 17.3261 16 16 16L6 16C4.67392 16 3.40215 16.4917 2.46447 17.3668C1.52678 18.242 1 19.429 1 20.6667L1 23" fill-rule="nonzero" stroke="rgb(69.2617,69.2617,69.2617)" stroke-linecap="round" stroke-linejoin="round" stroke-width="2" />
		<path id="Vector" d="M10.5 11C7.73858 11 5.5 8.76142 5.5 6C5.5 3.23858 7.73858 1 10.5 1C13.2614 1 15.5 3.23858 15.5 6C15.5 8.76142 13.2614 11 10.5 11Z" stroke="rgb(69.2617,69.2617,69.2617)" stroke-linecap="round" stroke-linejoin="round" stroke-width="2" />
	</g>
</svg>
